<svg xmlns="http://www.w3.org/2000/svg" width="323.033" height="340.269" viewBox="0 0 323.033 340.269"><g><circle fill="#43A5EB" cx="160.115" cy="175.733" r="109.519"/><circle fill="#F34B41" cx="160.5" cy="176.002" r="73"/><circle fill="#FEFB1F" cx="160.5" cy="175.999" r="37"/></g><g><path d="M282.938 226.615c-27.685 67.949-105.214 100.588-173.163 72.901-67.946-27.684-100.588-105.215-72.896-173.164 27.683-67.95 105.213-100.585 173.162-72.898 67.941 27.688 100.583 105.214 72.897 173.161z" fill="none"/><path fill="#4C4C4C" d="M20.38 99.67l4.067-6.583c1.621-2.623 3.373-4.152 5.258-4.587 1.883-.435 3.779-.063 5.687 1.117.644.397 1.216.898 1.715 1.504.5.605.901 1.274 1.208 2.007.306.732.486 1.504.546 2.315.06.812-.042 1.615-.302 2.409l13.129.994-1.725 2.791-12.889-1.142-2.652 4.293 9.838 6.079-1.592 2.576-22.288-13.773zm3.953-1.117l7.87 4.863 2.664-4.312c.983-1.591 1.344-2.96 1.08-4.108-.262-1.146-.979-2.082-2.147-2.804-.573-.354-1.155-.582-1.751-.688-.594-.104-1.176-.095-1.746.028-.57.123-1.14.403-1.707.841s-1.1 1.061-1.6 1.868l-2.663 4.312zM44.006 67.148l11.604-11.11 1.803 1.883-9.599 9.19 5.962 6.228 7.928-7.591 1.92 2.004-7.928 7.591 6.66 6.956 9.507-9.103 1.804 1.884-11.514 11.024-18.147-18.956zM96.064 44.93c1.904 3.368 2.842 6.349 2.813 8.942-.03 2.594-1.02 4.764-2.964 6.507.505.778 1.085 1.319 1.74 1.625.656.305 1.496.168 2.521-.411.122-.069.311-.192.565-.368.254-.176.537-.36.847-.552.311-.191.599-.379.866-.562.267-.183.461-.309.583-.378l1.336 2.53-1.428.808c-1.196.676-2.237 1.185-3.124 1.525-.887.34-1.705.432-2.453.276-.748-.156-1.416-.496-2.001-1.018-.585-.523-1.147-1.26-1.686-2.211-.997.402-2.069.583-3.221.542s-2.338-.345-3.558-.91c-1.223-.565-2.426-1.424-3.607-2.574-1.182-1.151-2.299-2.654-3.348-4.509-1.297-2.293-2.111-4.345-2.443-6.155-.331-1.81-.342-3.382-.033-4.716.308-1.333.827-2.465 1.558-3.395.732-.928 1.523-1.634 2.377-2.118 1.05-.593 2.181-.943 3.394-1.049 1.212-.105 2.487.099 3.826.614 1.338.516 2.616 1.379 3.834 2.591 1.217 1.212 2.419 2.867 3.606 4.966zm-15.99-.764c-.455 2.158.229 4.848 2.052 8.068.828 1.464 1.709 2.722 2.642 3.772.932 1.051 1.891 1.862 2.874 2.433.981.572 1.985.891 3.005.957 1.021.068 1.971-.148 2.848-.645.61-.345 1.152-.853 1.627-1.524.475-.67.783-1.505.926-2.505.144-1 .061-2.144-.25-3.434-.311-1.289-.922-2.74-1.833-4.35-1.159-2.051-2.276-3.625-3.35-4.726-1.074-1.1-2.115-1.847-3.128-2.24-1.012-.394-1.915-.552-2.708-.474-.792.079-1.481.283-2.067.614-.733.415-1.313.984-1.74 1.709s-.726 1.509-.898 2.345zM110.352 25.112l3.207-.867.063.07c.029.109.01.282-.057.518-.067.236-.086.511-.06.823l4.146 15.332c.381 1.409.813 2.464 1.291 3.164.48.699 1.032 1.234 1.655 1.604.622.369 1.298.587 2.027.651.729.065 1.479.021 2.252-.129.743-.259 1.416-.587 2.021-.984.604-.396 1.086-.925 1.443-1.59.357-.664.573-1.427.645-2.29s-.09-2.027-.486-3.491l-4.467-16.511 2.721-.735 4.447 16.441c.446 1.651.641 3.094.583 4.33-.06 1.235-.364 2.335-.917 3.297-.553.963-1.278 1.77-2.178 2.419-.898.649-1.971 1.143-3.216 1.479-1.218.33-2.378.44-3.481.333-1.104-.108-2.115-.431-3.029-.967-.915-.537-1.711-1.28-2.388-2.229-.679-.949-1.26-2.317-1.742-4.104l-4.48-16.564zM151.718 17.464l13.079-.117.021 2.438-5.171.047.191 21.405 5.426-.048.021 2.396-13.626.122-.021-2.438 5.172-.047-.192-21.362-4.877.043-.023-2.439zM189.361 19.944l7.52 1.826c2.996.727 4.992 1.919 5.99 3.575.997 1.656 1.231 3.573.702 5.752-.179.736-.479 1.436-.899 2.097-.42.663-.932 1.253-1.533 1.771s-1.279.93-2.031 1.237c-.753.308-1.548.461-2.384.46l3.126 12.79-3.188-.774-2.91-12.608-4.905-1.191-2.729 11.238-2.942-.715 6.183-25.458zm2.286 3.411l-2.182 8.99 4.924 1.197c1.817.441 3.23.359 4.24-.247s1.677-1.576 2.001-2.912c.158-.653.195-1.279.111-1.877-.085-.598-.274-1.149-.569-1.652-.293-.504-.736-.958-1.328-1.362-.592-.402-1.349-.716-2.271-.94l-4.926-1.197zM227.972 32.459l14.167 7.573-1.229 2.3-11.72-6.266-4.065 7.603 9.681 5.175-1.309 2.447-9.68-5.175-4.541 8.493 11.608 6.206-1.229 2.299-14.055-7.513 12.372-23.142zM251.607 56.447c.359.276.654.619.886 1.027.231.409.389.83.47 1.263.084.434.088.861.012 1.284-.076.422-.237.796-.488 1.121-.268.349-.592.621-.974.817-.383.196-.788.309-1.217.339-.43.03-.868-.021-1.313-.15-.445-.13-.864-.347-1.26-.65-.383-.294-.691-.633-.924-1.015-.232-.383-.387-.783-.463-1.202-.074-.418-.064-.835.033-1.25.098-.414.285-.802.562-1.162.267-.348.596-.618.982-.81.388-.191.796-.303 1.227-.333.429-.03.86.016 1.294.136.433.122.825.317 1.173.585zM274.441 66.031l8.137 8.802-1.792 1.656-2.74-2.965-10.983 10.151c-1.257 1.163-2.419 2.017-3.483 2.561-1.064.545-2.113.817-3.146.817s-1.943-.189-2.732-.566c-.789-.378-1.508-.917-2.153-1.616-1.694-1.833-2.383-4.003-2.065-6.51l3.102-.176c-.005.119-.07.245-.193.38-.125.134-.199.27-.225.408l-.027.712c-.028.178-.012.412.047.701.058.29.149.596.276.919.126.322.267.64.423.954.156.314.349.594.578.842.95 1.029 2.006 1.447 3.166 1.253 1.159-.194 2.637-1.12 4.432-2.779l11.016-10.182-3.425-3.706 1.787-1.656zM298.975 105.508l-3.109-.349c-.022-.149.043-.275.193-.378.151-.104.25-.2.295-.29.415-.854.603-1.793.563-2.821-.042-1.028-.396-2.125-1.065-3.292-.643-1.119-1.505-1.861-2.587-2.226-1.082-.364-2.074-.288-2.973.228-.536.307-.946.664-1.229 1.069-.284.406-.5.902-.648 1.489-.148.585-.201 1.352-.16 2.298.042.946.167 2.135.376 3.567.179 1.384.254 2.57.223 3.558-.031.987-.176 1.847-.436 2.577-.259.73-.622 1.352-1.089 1.862-.466.511-1.053.968-1.758 1.373-.778.447-1.646.751-2.604.913-.957.162-1.925.111-2.9-.153-.976-.264-1.932-.759-2.864-1.483-.934-.725-1.784-1.756-2.552-3.094-1.689-2.941-2.078-5.871-1.165-8.786l3.483-.012c-.003.163-.089.293-.26.392-.17.097-.283.211-.338.339-.384.965-.541 2.057-.471 3.277s.489 2.499 1.258 3.836c.39.68.865 1.241 1.424 1.68s1.146.757 1.76.953c.615.197 1.253.268 1.915.21.662-.057 1.285-.252 1.869-.588.462-.265.836-.585 1.122-.959.285-.375.488-.838.607-1.392.119-.553.15-1.259.096-2.115-.057-.857-.18-1.958-.37-3.304-.223-1.457-.323-2.717-.303-3.779s.134-1.976.342-2.742c.207-.765.53-1.412.972-1.939.44-.528.988-.98 1.645-1.357.827-.474 1.707-.745 2.639-.811.932-.067 1.85.054 2.752.359.903.306 1.75.797 2.543 1.473.793.677 1.469 1.501 2.027 2.474.711 1.24 1.132 2.55 1.262 3.931s-.033 2.717-.485 4.012z"/></g><g><path stroke="#4C4C4C" stroke-width="2" stroke-miterlimit="10" fill="none" d="M83.24 316.098h143"/><path fill="#4C4C4C" d="M238.271 315.087c.991.476.998 1.268.014 1.76l-13.291 6.668c-.984.492-1.754-.006-1.754-1.105v-12.568c0-1.1.776-1.61 1.768-1.135l13.263 6.38z"/><path stroke="#4C4C4C" stroke-width="2" stroke-miterlimit="10" fill="none" d="M95.817 306.598l9.583 9.5"/><path stroke="#4C4C4C" stroke-width="2" stroke-miterlimit="10" fill="none" d="M88.817 306.598l9.583 9.5"/><path stroke="#4C4C4C" stroke-width="2" stroke-miterlimit="10" fill="none" d="M81.817 306.598l9.583 9.5"/><path stroke="#4C4C4C" stroke-width="2" stroke-miterlimit="10" fill="none" d="M91.4 316.1l-9.584 9.5"/><path stroke="#4C4C4C" stroke-width="2" stroke-miterlimit="10" fill="none" d="M98.4 316.1l-9.584 9.5"/><path stroke="#4C4C4C" stroke-width="2" stroke-miterlimit="10" fill="none" d="M105.4 316.1l-9.584 9.5"/><path stroke="#4C4C4C" stroke-width="2" stroke-miterlimit="10" fill="none" d="M102.817 306.598l9.584 9.5"/><path stroke="#4C4C4C" stroke-width="2" stroke-miterlimit="10" fill="none" d="M112.4 316.1l-9.584 9.5"/></g></svg>